# xmcd
#
# Track frame offsets:
#	182
#	12875
#	24515
#	34845
#	45650
#	56432
#	66560
#	81142
#	91342
#	102615
#	116802
#	128555
#	136270
#	145465
#	156972
#	167132
#	177070
#	187122
#
# Disc length: 2606 seconds
#
# Revision: 9
# Processed by: cddbd v1.5.2PL0 Copyright (c) Steve Scherf et al.
# Submitted via: audiograbber 1.83.01
#
DISCID=fc0a2c12
DTITLE=Christmas - Hillbilly Holiday
DYEAR=1900
DGENRE=Christmas
TTITLE0=Bill Monroe - Christmas Time's A Coming
TTITLE1=Tex Ritter - Christmas Carols By The Old Corral
TTITLE2=Brenda Lee - I'm Gonna Lasso Santa Claus
TTITLE3=Ernest Tubb - I'll Be Walkin' The Floor This Christmas
TTITLE4=Hank Snow - Reindeer Boogie
TTITLE5=Hank Thompson - Gonna Wrap My Heart In Ribbons
TTITLE6=Bill Anderson - 'Po Folks Christmas
TTITLE7=Buck Owens - Santa Looked A Lot Like Daddy
TTITLE8=Willie Nelson - Pretty Paper
TTITLE9=Lovin Brothers - It Came Upon A Midnight Clear
TTITLE10=George Jones - My Mom And Santa Claus
TTITLE11=Marty Robbins - One Of You (In Every Size)
TTITLE12=Loretta Lynn - The Heck With Ole Santa Claus
TTITLE13=Commander Cody - Daddy's Drinking Up Our Christmas
TTITLE14=Faron Young - I'm Gonna Tell Santa On You
TTITLE15=Johnny Horton - They Shined Up Rudolph's Nose
TTITLE16=Davis Sisters - Christmas Boogie
TTITLE17=Buck Owens - Christmas Times A-Comin'
EXTD=
EXTT0=Bill Monroe\n
EXTT1=Tex Ritter\n
EXTT2=Brenda Lee\n
EXTT3=Ernest Tubb and His Texas Troubadours\n
EXTT4=Hank Snow\n
EXTT5=Hank Thompson\n
EXTT6=Bill Anderson\n
EXTT7=Buck Owens\n
EXTT8=Willie Nelson\n
EXTT9=The louvin Brothers\n
EXTT10=George Jones\n
EXTT11=Marty Robbins\n
EXTT12=Loretta Lynn\n
EXTT13=Commander Cody\n
EXTT14=Faron Young\n
EXTT15=Johnny Horton\n
EXTT16=The Davis Sisters\n
EXTT17=Buck Owens\n
PLAYORDER=
